<svg width="220" height="48" viewBox="0 0 220 48" fill="none" xmlns="http://www.w3.org/2000/svg">
  <rect width="48" height="48" rx="10" fill="url(#markGradient)"/>
  <path d="M16 33V15H28.1C32.5 15 35.5 17.6 35.5 21.6C35.5 25.7 32.5 28.3 28.1 28.3H22.2V33H16ZM22.2 23.5H27.3C28.7 23.5 29.4 22.8 29.4 21.6C29.4 20.5 28.7 19.8 27.3 19.8H22.2V23.5Z" fill="white"/>
  <path d="M64 31.6V16.4H74.1C77.8 16.4 80.4 18.6 80.4 22C80.4 25.5 77.8 27.6 74.1 27.6H69.2V31.6H64ZM69.2 23.6H73.4C74.6 23.6 75.2 23 75.2 22C75.2 21 74.6 20.4 73.4 20.4H69.2V23.6ZM82.7 31.6V16.4H96.6V20.4H87.8V22.1H95.8V25.7H87.8V27.6H96.8V31.6H82.7ZM98.5 31.6L105.1 16.4H110.4L117 31.6H111.6L110.6 29H104.6L103.6 31.6H98.5ZM105.9 25.4H109.3L107.6 21L105.9 25.4ZM119 31.6V16.4H124.2V22.1L129.5 16.4H135.6L129.4 22.8L135.9 31.6H129.7L125.8 26.3L124.2 27.9V31.6H119Z" fill="white"/>
  <path d="M143 31.6L149.6 16.4H154.9L161.5 31.6H156.1L155.1 29H149.1L148.1 31.6H143ZM150.4 25.4H153.8L152.1 21L150.4 25.4ZM171 31.9C165.9 31.9 162.3 28.6 162.3 24C162.3 19.4 165.9 16.1 170.9 16.1C174.2 16.1 176.8 17.5 178.2 20L173.9 22.2C173.3 21.1 172.4 20.5 171 20.5C168.9 20.5 167.6 21.9 167.6 24C167.6 26.2 169 27.6 171.3 27.6C172.5 27.6 173.5 27.3 174.2 26.7V26.1H170.7V22.8H179V28.8C177.2 30.8 174.5 31.9 171 31.9ZM181.7 31.6V16.4H195.6V20.4H186.8V22.1H194.8V25.7H186.8V27.6H195.8V31.6H181.7ZM198.5 31.6V16.4H203L209.3 24V16.4H214.3V31.6H209.8L203.5 24V31.6H198.5Z" fill="url(#textGradient)"/>
  <defs>
    <linearGradient id="markGradient" x1="4" y1="4" x2="44" y2="44" gradientUnits="userSpaceOnUse">
      <stop stop-color="#7C3AED"/>
      <stop offset="1" stop-color="#06B6D4"/>
    </linearGradient>
    <linearGradient id="textGradient" x1="143" y1="16" x2="214" y2="32" gradientUnits="userSpaceOnUse">
      <stop stop-color="#A78BFA"/>
      <stop offset="1" stop-color="#22D3EE"/>
    </linearGradient>
  </defs>
</svg>
